<?xml version="1.0" standalone="no"?><!DOCTYPE svg PUBLIC "-//W3C//DTD SVG 1.1//EN" "http://www.w3.org/Graphics/SVG/1.1/DTD/svg11.dtd"><svg t="1742919810607" class="icon" viewBox="0 0 1024 1024" version="1.1" xmlns="http://www.w3.org/2000/svg" p-id="1578" xmlns:xlink="http://www.w3.org/1999/xlink" width="200" height="200"><path d="M796.193833 304.493392H225.550661c-54.132159 0-99.242291 47.365639-99.242291 110.519824v473.656388c0 58.643172 42.854626 110.519824 99.242291 110.519823h570.643172c54.132159 0 99.242291-47.365639 99.24229-110.519823v-473.656388c0-60.898678-45.110132-110.519824-99.24229-110.519824z m-498.466961 223.295154c0-24.810573 22.555066-47.365639 47.365639-47.365639s47.365639 22.555066 47.365639 47.365639-22.555066 47.365639-47.365639 47.365639-47.365639-18.044053-47.365639-47.365639zM606.731278 766.872247h-189.462556c-24.810573 0-47.365639-22.555066-47.365638-47.365639s22.555066-47.365639 47.365638-47.365639h189.462556c24.810573 0 47.365639 22.555066 47.365638 47.365639 0 27.066079-22.555066 47.365639-47.365638 47.365639z m69.920704-191.718062c-24.810573 0-47.365639-22.555066-47.365638-47.365639s22.555066-47.365639 47.365638-47.365639 47.365639 22.555066 47.365639 47.365639-18.044053 47.365639-47.365639 47.365639z m-640.563876 202.995595c-20.299559 0-36.088106-15.788546-36.088106-36.088106v-189.462555c0-20.299559 15.788546-36.088106 36.088106-36.088106s36.088106 15.788546 36.088105 36.088106v189.462555c0 20.299559-15.788546 36.088106-36.088105 36.088106z m949.568282 0c-20.299559 0-36.088106-15.788546-36.088106-36.088106v-189.462555c0-20.299559 15.788546-36.088106 36.088106-36.088106 20.299559 0 36.088106 15.788546 36.088105 36.088106v189.462555c2.255507 20.299559-15.788546 36.088106-36.088105 36.088106z" fill="#333333" p-id="1579"></path><path d="M599.964758 101.497797c0-49.621145-40.599119-90.220264-90.220265-90.220264s-90.220264 40.599119-90.220264 90.220264c0 36.088106 22.555066 67.665198 51.876652 81.198238V338.325991h72.176212V182.696035c36.088106-13.53304 56.387665-45.110132 56.387665-81.198238z m-87.964758-18.044053c9.022026 0 18.044053 6.76652 18.044053 18.044053 0 9.022026-6.76652 18.044053-18.044053 18.044053s-18.044053-6.76652-18.044053-18.044053 9.022026-18.044053 18.044053-18.044053z" fill="#333333" p-id="1580"></path></svg>